<?xml version="1.0" encoding="utf-8"?><svg width="23" height="23" fill="none" xmlns="http://www.w3.org/2000/svg" stroke="currentColor" viewBox="0 0 23 23"><path d="M22.645 2.7c-.281-.329-.702-.51-1.185-.51-.263 0-.541.053-.827.158L1.163 9.459C.132 9.836-.008 10.403 0 10.706c.01.304.182.862 1.236 1.183l.019.005L5.293 13l2.184 5.976c.298.814.966 1.32 1.745 1.32.49 0 .973-.197 1.396-.569l2.498-2.2 3.623 2.791.035.027.01.008c.403.298.842.456 1.272.456.839 0 1.507-.594 1.701-1.513l3.19-15.071c.128-.605.021-1.147-.302-1.525zm-16 10.09l7.79-3.808-4.851 4.932a.636.636 0 0 0-.164.287l-.935 3.626-1.84-5.037zm3.06 5.989a1.274 1.274 0 0 1-.098.077l.868-3.364 1.58 1.217-2.35 2.07zm11.921-14.81l-3.19 15.071c-.03.144-.128.48-.38.48-.125 0-.282-.065-.442-.183l-4.105-3.163-.002-.001-2.443-1.882 7.016-7.133a.624.624 0 0 0 .048-.83.693.693 0 0 0-.845-.186l-11.54 5.64-4.093-1.12 19.463-7.11c.165-.06.28-.072.347-.072.041 0 .114.005.142.037.035.042.081.184.024.452z" fill="#fff"/></svg>